<svg xmlns="http://www.w3.org/2000/svg" viewBox="0 0 64 64" role="img" aria-label="Wareb">
  <defs>
    <linearGradient id="g" x1="0" x2="1" y1="0" y2="1">
      <stop offset="0%" stop-color="#FF8787" />
      <stop offset="100%" stop-color="#FF5252" />
    </linearGradient>
  </defs>
  <rect x="2" y="2" width="60" height="60" rx="14" fill="#fff7f7" />
  <circle cx="32" cy="32" r="21" fill="url(#g)" opacity="0.2" />
  <path d="M18 24h28a1 1 0 0 1 1 1v5c0 7.18-5.82 13-13 13h-4c-7.18 0-13-5.82-13-13v-5a1 1 0 0 1 1-1z" fill="#7f1d1d"/>
  <rect x="16" y="42" width="32" height="4" rx="2" fill="#7f1d1d"/>
  <path d="M25 19c0-2 1.2-3.8 3.1-4.7M32 18c0-2 1.1-3.7 2.9-4.6M39 20c0-1.8 1-3.3 2.5-4.2" stroke="#ef4444" stroke-width="2.5" stroke-linecap="round" fill="none"/>
</svg>
